HIERARCHY
ROOT Hips
{
	OFFSET 0.000000 89.005402 0.000000
	CHANNELS 6 Xposition Yposition Zposition Xrotation Yrotation Zrotation
	JOINT Spine
	{
		OFFSET 0.116900 10.681000 0.373400
		CHANNELS 3 Xrotation Yrotation Zrotation
		JOINT Spine1
		{
			OFFSET 0.000000 13.840401 0.053500
			CHANNELS 3 Xrotation Yrotation Zrotation
			JOINT Spine2
			{
				OFFSET 0.000000 14.712700 -0.366200
				CHANNELS 3 Xrotation Yrotation Zrotation
				JOINT Neck
				{
					OFFSET 0.000000 35.415497 -3.314200
					CHANNELS 3 Xrotation Yrotation Zrotation
					JOINT Head
					{
						OFFSET 0.000000 16.899200 1.218300
						CHANNELS 3 Xrotation Yrotation Zrotation
						JOINT HeadTop_End
						{
							OFFSET 0.000000 22.206207 2.192500
							CHANNELS 3 Xrotation Yrotation Zrotation
							End Site
							{
								OFFSET 0.000000 22.314178 0.000000
							}
						}
					}
				}
				JOINT LeftShoulder
				{
					OFFSET 12.896400 26.716293 -4.548400
					CHANNELS 3 Xrotation Yrotation Zrotation
					JOINT LeftArm
					{
						OFFSET 19.027000 -4.857010 -1.718400
						CHANNELS 3 Xrotation Yrotation Zrotation
						JOINT LeftForeArm
						{
							OFFSET 24.179897 0.000000 0.000000
							CHANNELS 3 Xrotation Yrotation Zrotation
							JOINT LeftHand
							{
								OFFSET 27.156403 0.000000 0.000000
								CHANNELS 3 Xrotation Yrotation Zrotation
								JOINT LeftHandIndex1
								{
									OFFSET 16.441200 0.000000 0.000000
									CHANNELS 3 Xrotation Yrotation Zrotation
									JOINT LeftHandIndex2
									{
										OFFSET 4.821899 0.000000 0.000000
										CHANNELS 3 Xrotation Yrotation Zrotation
										JOINT LeftHandIndex3
										{
											OFFSET 6.386497 0.000000 0.000000
											CHANNELS 3 Xrotation Yrotation Zrotation
											JOINT LeftHandIndex4
											{
												OFFSET 5.188988 0.000000 0.000000
												CHANNELS 3 Xrotation Yrotation Zrotation
												End Site
												{
													OFFSET -0.178703 5.185913 0.000177
												}
											}
										}
									}
								}
								JOINT LeftHandThumb1
								{
									OFFSET 6.534897 -5.032593 5.900300
									CHANNELS 3 Xrotation Yrotation Zrotation
									JOINT LeftHandThumb2
									{
										OFFSET 3.818176 -2.204422 2.204423
										CHANNELS 3 Xrotation Yrotation Zrotation
										JOINT LeftHandThumb3
										{
											OFFSET 3.252098 -1.877594 1.877601
											CHANNELS 3 Xrotation Yrotation Zrotation
											JOINT LeftHandThumb4
											{
												OFFSET 5.251778 -3.032120 3.032117
												CHANNELS 3 Xrotation Yrotation Zrotation
												End Site
												{
													OFFSET 0.000023 6.780014 0.000000
												}
											}
										}
									}
								}
							}
						}
					}
				}
				JOINT RightShoulder
				{
					OFFSET -12.896300 26.716293 -4.548400
					CHANNELS 3 Xrotation Yrotation Zrotation
					JOINT RightArm
					{
						OFFSET -19.027000 -4.857010 -1.718400
						CHANNELS 3 Xrotation Yrotation Zrotation
						JOINT RightForeArm
						{
							OFFSET -24.179897 0.000000 0.000000
							CHANNELS 3 Xrotation Yrotation Zrotation
							JOINT RightHand
							{
								OFFSET -27.156403 0.000000 0.000000
								CHANNELS 3 Xrotation Yrotation Zrotation
								JOINT RightHandThumb1
								{
									OFFSET -6.591202 -4.852203 5.988100
									CHANNELS 3 Xrotation Yrotation Zrotation
									JOINT RightHandThumb2
									{
										OFFSET -3.818176 -2.204422 2.204423
										CHANNELS 3 Xrotation Yrotation Zrotation
										JOINT RightHandThumb3
										{
											OFFSET -3.252098 -1.877594 1.877601
											CHANNELS 3 Xrotation Yrotation Zrotation
											JOINT RightHandThumb4
											{
												OFFSET -5.251778 -3.032120 3.032117
												CHANNELS 3 Xrotation Yrotation Zrotation
												End Site
												{
													OFFSET -0.000023 6.780014 0.000000
												}
											}
										}
									}
								}
								JOINT RightHandIndex1
								{
									OFFSET -16.029404 0.000000 0.000000
									CHANNELS 3 Xrotation Yrotation Zrotation
									JOINT RightHandIndex2
									{
										OFFSET -5.213303 0.000000 0.000000
										CHANNELS 3 Xrotation Yrotation Zrotation
										JOINT RightHandIndex3
										{
											OFFSET -6.386528 0.000000 0.000000
											CHANNELS 3 Xrotation Yrotation Zrotation
											JOINT RightHandIndex4
											{
												OFFSET -5.189026 0.000000 0.000000
												CHANNELS 3 Xrotation Yrotation Zrotation
												End Site
												{
													OFFSET 0.236702 5.183624 0.001972
												}
											}
										}
									}
								}
							}
						}
					}
				}
			}
		}
	}
	JOINT LeftUpLeg
	{
		OFFSET 14.073000 -7.904099 -1.463000
		CHANNELS 3 Xrotation Yrotation Zrotation
		JOINT LeftLeg
		{
			OFFSET -0.109806 -34.073280 4.093200
			CHANNELS 3 Xrotation Yrotation Zrotation
			JOINT LeftFoot
			{
				OFFSET 0.109806 -29.899420 -6.319000
				CHANNELS 3 Xrotation Yrotation Zrotation
				JOINT LeftToeBase
				{
					OFFSET 1.551100 -14.988700 20.535801
					CHANNELS 3 Xrotation Yrotation Zrotation
					JOINT LeftToe_End
					{
						OFFSET 0.221200 0.570800 13.248301
						CHANNELS 3 Xrotation Yrotation Zrotation
						End Site
						{
							OFFSET 0.000000 13.262435 0.000000
						}
					}
				}
			}
		}
	}
	JOINT RightUpLeg
	{
		OFFSET -13.839300 -7.904099 -1.463000
		CHANNELS 3 Xrotation Yrotation Zrotation
		JOINT RightLeg
		{
			OFFSET 0.109694 -34.073219 4.093300
			CHANNELS 3 Xrotation Yrotation Zrotation
			JOINT RightFoot
			{
				OFFSET -0.109694 -29.899384 -6.319200
				CHANNELS 3 Xrotation Yrotation Zrotation
				JOINT RightToeBase
				{
					OFFSET -1.551100 -14.988700 20.535801
					CHANNELS 3 Xrotation Yrotation Zrotation
					JOINT RightToe_End
					{
						OFFSET -0.221200 0.570900 13.248299
						CHANNELS 3 Xrotation Yrotation Zrotation
						End Site
						{
							OFFSET 0.000000 13.262440 0.000000
						}
					}
				}
			}
		}
	}
}
MOTION
Frames: 5
Frame Time: 0.033333
9.739696 83.619865 -44.929943 -1.139607 27.271665 3.649124 1.438632 4.189465 -1.823020 3.628170 9.372061 -4.717289 3.594180 9.344875 -4.798128 1.390810 10.800192 1.477429 39.286043 51.399424 -38.691372 -0.000001 0.000001 -0.000000 0.823245 0.966522 -11.784766 12.299634 -4.029394 -49.909613 0.000024 -53.862793 0.000019 9.696957 14.299934 -19.603582 0.813657 3.251982 -28.087591 0.158780 1.473078 -12.303488 0.039802 0.740806 -6.150716 0.000001 0.000001 0.000001 16.951305 4.654896 11.479873 5.586534 29.572479 2.207046 0.363194 12.361072 3.552940 0.000001 -0.000001 0.000002 1.840480 -4.669647 11.068734 13.214248 34.530325 58.375250 0.000001 38.430616 0.000008 3.656733 0.137312 -15.211601 -1.849243 -3.581798 -6.586145 6.484214 -30.246431 -1.526097 -0.331160 -10.639509 -3.200670 -0.000001 0.000002 -0.000002 0.821423 -3.283486 28.083487 0.160192 -1.486871 12.297799 0.040177 -0.747741 6.147849 -0.000000 -0.000000 -0.000001 -20.778088 0.873148 -5.871647 26.020949 -0.068882 -1.942408 -4.154209 -0.510151 4.591626 -1.080729 0.000002 -0.000000 0.000000 0.000002 0.000000 -0.598352 -11.717107 -8.195158 47.057883 -3.320529 -0.446930 -16.737966 -2.349978 9.268086 -29.189551 -0.184911 0.510461 -0.000000 -0.000000 -0.000000 
9.212690 83.577606 -46.548397 -1.097799 26.744342 3.862927 1.407989 4.245883 -1.893632 3.570974 9.469233 -4.794105 3.544093 9.439835 -4.872607 1.365880 10.802964 1.477409 39.278027 51.399646 -38.885158 -0.000001 -0.000000 0.000001 0.824387 1.059873 -11.848383 13.190503 -4.347429 -50.182701 0.000018 -54.147814 0.000011 9.986697 14.740754 -20.368855 0.813661 3.251982 -28.087594 0.158780 1.473080 -12.303482 0.039801 0.740803 -6.150719 -0.000001 0.000001 -0.000001 16.951309 4.654895 11.479870 5.586532 29.572475 2.207046 0.363195 12.361071 3.552940 0.000000 0.000002 0.000003 1.828731 -4.704800 11.040800 13.304938 34.176815 57.820058 0.000004 38.525590 -0.000012 3.582178 0.092790 -15.181349 -1.849244 -3.581796 -6.586147 6.484214 -30.246431 -1.526100 -0.331161 -10.639509 -3.200669 -0.000000 0.000001 -0.000001 0.821421 -3.283485 28.083486 0.160191 -1.486873 12.297798 0.040178 -0.747738 6.147846 -0.000001 -0.000001 -0.000002 -21.763153 0.661041 -6.209930 24.801776 0.820579 -2.033460 -2.040205 -0.423296 4.616901 -1.196575 0.000007 0.000000 -0.000000 -0.000000 0.000000 2.171287 -11.695466 -6.575828 44.020778 -3.033070 -0.874453 -18.787163 -2.004422 8.068582 -27.507267 0.002164 -0.007411 0.000000 0.000000 0.000000 
8.628456 83.558342 -48.244999 -0.966575 26.272200 4.007937 1.400693 4.282921 -1.822246 3.540023 9.511987 -4.765952 3.517570 9.483530 -4.839487 1.374547 10.806222 1.424670 39.262571 51.341497 -39.148708 0.000002 -0.000001 0.000001 0.829712 1.109925 -11.908413 13.947785 -4.941664 -50.604315 0.000012 -54.228581 0.000003 10.622826 15.177334 -21.522047 0.813655 3.251982 -28.087592 0.158782 1.473081 -12.303485 0.039803 0.740805 -6.150721 -0.000001 -0.000002 0.000003 16.951310 4.654896 11.479873 5.586533 29.572475 2.207048 0.363194 12.361067 3.552943 -0.000001 -0.000001 0.000002 1.814046 -4.716716 11.013649 13.736299 33.873879 56.778089 -0.000028 38.619023 0.000015 3.452492 0.062495 -15.260219 -1.849244 -3.581797 -6.586147 6.484213 -30.246431 -1.526098 -0.331159 -10.639512 -3.200672 -0.000003 -0.000002 -0.000000 0.821424 -3.283485 28.083489 0.160191 -1.486871 12.297799 0.040178 -0.747742 6.147846 -0.000000 -0.000000 -0.000001 -22.727133 0.463126 -6.466276 23.165990 1.570452 -2.148656 0.390498 -0.284214 4.691423 -1.346479 0.000010 -0.000001 -0.000000 0.000002 0.000000 4.733941 -11.754059 -5.299067 39.737580 -3.286154 -1.278723 -21.827302 -1.843731 7.008035 -22.680459 0.003863 -0.022747 0.000000 0.000001 -0.000000 
7.958989 83.503647 -50.075592 -0.658167 25.889094 3.987087 1.414008 4.305785 -1.578915 3.539037 9.485353 -4.597048 3.517172 9.460937 -4.664430 1.400897 10.803302 1.358911 39.308367 51.215019 -39.471247 -0.000000 -0.000001 -0.000001 0.836905 1.109056 -11.950207 14.486466 -5.836085 -51.267765 -0.000007 -54.061477 -0.000001 11.501678 15.431619 -22.802342 0.813658 3.251981 -28.087589 0.158782 1.473080 -12.303487 0.039803 0.740806 -6.150713 -0.000000 0.000001 -0.000002 16.951310 4.654896 11.479875 5.586535 29.572482 2.207045 0.363193 12.361063 3.552939 0.000001 -0.000003 -0.000001 1.802942 -4.697001 10.999253 14.554165 33.609404 55.189288 -0.000015 38.713406 0.000014 3.347062 -0.002746 -15.415949 -1.849244 -3.581797 -6.586143 6.484217 -30.246424 -1.526096 -0.331160 -10.639509 -3.200674 0.000001 0.000001 -0.000000 0.821422 -3.283485 28.083491 0.160192 -1.486872 12.297799 0.040177 -0.747740 6.147849 -0.000000 -0.000000 0.000001 -23.915878 0.299757 -6.546029 21.301506 2.138241 -2.296226 3.122416 -0.104350 4.792464 -1.581630 -0.000002 -0.000000 0.000000 0.000000 -0.000000 6.233389 -11.887248 -4.608037 35.126690 -3.591856 -1.393553 -24.667985 -1.861784 6.339657 -16.752420 0.000813 -0.011191 -0.000000 -0.000000 0.000000 
7.197456 83.404137 -52.090797 -0.188804 25.699217 3.678225 1.446569 4.310078 -1.205165 3.575457 9.358171 -4.287002 3.550648 9.340161 -4.348373 1.402025 10.781174 1.360069 39.495446 51.020420 -39.826696 -0.000000 -0.000000 -0.000001 0.835765 1.071882 -11.936365 14.670485 -6.974334 -52.401187 0.000036 -53.544353 0.000046 12.537322 15.377044 -23.772697 0.813657 3.251982 -28.087592 0.158780 1.473080 -12.303485 0.039803 0.740805 -6.150721 0.000000 -0.000000 -0.000001 16.951307 4.654896 11.479875 5.586533 29.572475 2.207045 0.363195 12.361068 3.552942 0.000001 -0.000002 -0.000002 1.806457 -4.641001 11.016183 15.700144 33.313431 53.126960 -0.000016 38.812786 0.000020 3.331476 -0.148982 -15.567517 -1.849244 -3.581798 -6.586144 6.484216 -30.246427 -1.526099 -0.331161 -10.639508 -3.200670 -0.000001 0.000001 -0.000002 0.821423 -3.283486 28.083487 0.160191 -1.486870 12.297797 0.040178 -0.747742 6.147849 -0.000000 -0.000001 -0.000000 -25.393815 0.221953 -6.243292 19.196532 2.452176 -2.439973 6.264959 0.039051 4.827303 -2.135959 -0.000007 -0.000000 -0.000000 -0.000000 0.000000 6.498318 -11.963328 -4.037304 31.243857 -4.139200 -1.109813 -26.658884 -1.857469 5.698790 -11.346913 0.000002 -0.000079 -0.000000 0.000000 -0.000000 
